<?xml version="1.0"?>
<svg xmlns="http://www.w3.org/2000/svg" id="Layer_1" data-name="Layer 1" viewBox="0 0 512 512" width="512" height="512"><title>Database tic</title><path d="M346,285.47a100,100,0,1,1-64.63,151.29,100.127,100.127,0,0,1-2.14-103.05h.01a100.146,100.146,0,0,1,66.58-48.21Z" style="fill:#6fe3ff"/><path d="M346,185.68v99.79l-.18.03a100.146,100.146,0,0,0-66.58,48.21h-.01c-23.82,5.76-52.43,9.11-83.23,9.11-82.86,0-150-24.28-150-54.28V185.68c0,30,67.14,54.28,150,54.28S346,215.68,346,185.68Zm-51.05,92.1a11.92,11.92,0,1,0-11.92,11.93A11.924,11.924,0,0,0,294.95,277.78Z" style="fill:#f8ec7d"/><path d="M346,82.82V185.68c0,30-67.14,54.28-150,54.28S46,215.68,46,185.68V82.82c0,29.98,67.16,54.29,150,54.29S346,112.8,346,82.82Zm-51.05,93.63a11.92,11.92,0,1,0-11.92,11.92A11.918,11.918,0,0,0,294.95,176.45Z" style="fill:#e48e66"/><path d="M196,28.54c82.84,0,150,24.3,150,54.28s-67.16,54.29-150,54.29S46,112.8,46,82.82,113.16,28.54,196,28.54Z" style="fill:#f8ec7d"/><circle cx="283.03" cy="176.45" r="11.92" style="fill:#f8ec7d"/><path d="M283.03,265.86a11.925,11.925,0,1,1-11.92,11.92A11.924,11.924,0,0,1,283.03,265.86Z" style="fill:#e48e66"/><path d="M281.37,436.76l-1.5.37c-23.94,5.85-52.8,9.26-83.87,9.26-82.86,0-150-24.28-150-54.28V288.54c0,30,67.14,54.28,150,54.28,30.8,0,59.41-3.35,83.23-9.11a100.127,100.127,0,0,0,2.14,103.05Z" style="fill:#e48e66"/><path d="M196,194.37a398.1,398.1,0,0,1-53.835-3.546,6,6,0,1,1,1.63-11.888A386.252,386.252,0,0,0,196,182.37a397.021,397.021,0,0,0,41.785-2.166,6,6,0,1,1,1.269,11.932A408.7,408.7,0,0,1,196,194.37Z" style="fill:#f8ec7d"/><path d="M196,295.71a399.83,399.83,0,0,1-53.831-3.545,6,6,0,0,1,1.622-11.89A387.784,387.784,0,0,0,196,283.71a394.143,394.143,0,0,0,41.781-2.176,6,6,0,0,1,1.278,11.932A406.268,406.268,0,0,1,196,295.71Z" style="fill:#e48e66"/><path d="M196,397.04a398.1,398.1,0,0,1-53.835-3.546,6,6,0,0,1,1.63-11.889A386.086,386.086,0,0,0,196,385.04a397.021,397.021,0,0,0,41.785-2.166,6,6,0,1,1,1.269,11.932A408.7,408.7,0,0,1,196,397.04Z" style="fill:#f8ec7d"/><path d="M399.307,355.157l-43.866,43.866-22.727-22.955a6,6,0,0,0-8.528,8.444l26.97,27.475A6.236,6.236,0,0,0,355.405,414h.015a6.25,6.25,0,0,0,4.243-1.992l48.13-48.248a6.071,6.071,0,0,0,0-8.544A6,6,0,0,0,399.307,355.157Z" style="fill:#2561a1"/></svg>
