<svg height="511pt" viewBox="-30 1 511 511.99999" width="511pt" xmlns="http://www.w3.org/2000/svg"><path d="m9.328125 44.140625h335.464844v423.746094h-335.464844zm0 0" fill="#fbedbf"/><path d="m436.726562 498.023438c-6.894531 6.894531-18.070312 6.894531-24.964843 0l-81.15625-81.144532 24.976562-24.976562 81.144531 81.15625c6.894532 6.894531 6.894532 18.070312 0 24.964844zm0 0" fill="#a45e14"/><path d="m106.4375 8.828125h141.246094v70.625h-141.246094zm0 0" fill="#6fbbc6"/><path d="m106.4375 79.453125h141.246094v17.65625h-141.246094zm0 0" fill="#fbd699"/><g fill="#cdcdcd"><path d="m300.652344 252.921875c-2.105469.003906-4.144532-.75-5.738282-2.125l-56.058593-48.035156-56.058594 48.035156c-3.300781 2.824219-8.171875 2.824219-11.476563 0l-56.054687-48.035156-56.058594 48.035156c-3.550781 3.339844-9.136719 3.171875-12.480469-.378906-3.339843-3.550781-3.171874-9.136719.378907-12.480469.199219-.1875.40625-.363281.625-.535156l61.796875-52.96875c3.292968-2.851563 8.179687-2.851563 11.476562 0l56.054688 48.035156 56.058594-48.035156c3.292968-2.851563 8.183593-2.851563 11.476562 0l61.796875 52.96875c3.695313 3.179687 4.113281 8.753906.933594 12.449218-1.671875 1.945313-4.105469 3.066407-6.671875 3.070313zm0 0"/><path d="m132.921875 326.636719h-70.625c-4.875 0-8.828125-3.953125-8.828125-8.828125s3.953125-8.828125 8.828125-8.828125h70.625c4.875 0 8.828125 3.953125 8.828125 8.828125s-3.953125 8.828125-8.828125 8.828125zm0 0"/><path d="m132.921875 361.949219h-70.625c-4.875 0-8.828125-3.953125-8.828125-8.828125s3.953125-8.828125 8.828125-8.828125h70.625c4.875 0 8.828125 3.953125 8.828125 8.828125s-3.953125 8.828125-8.828125 8.828125zm0 0"/><path d="m132.921875 397.261719h-70.625c-4.875 0-8.828125-3.953125-8.828125-8.828125s3.953125-8.828125 8.828125-8.828125h70.625c4.875 0 8.828125 3.953125 8.828125 8.828125s-3.953125 8.828125-8.828125 8.828125zm0 0"/></g><path d="m371.277344 357.535156c0 41.441406-33.597656 75.039063-75.039063 75.039063-41.441406 0-75.039062-33.597657-75.039062-75.039063s33.597656-75.039062 75.039062-75.039062c41.441407 0 75.039063 33.597656 75.039063 75.039062zm0 0" fill="#aedee2"/><path d="m344.792969 300.398438c-31.554688-26.863282-78.914063-23.0625-105.78125 8.492187-26.863281 31.554687-23.0625 78.914063 8.492187 105.78125 28.035156 23.867187 69.25 23.867187 97.289063 0zm0 0" fill="#b3e4e8"/><path d="m132.921875 185.386719c0 9.753906-7.90625 17.65625-17.65625 17.65625-9.753906 0-17.65625-7.902344-17.65625-17.65625 0-9.75 7.902344-17.652344 17.65625-17.652344 9.75 0 17.65625 7.902344 17.65625 17.652344zm0 0" fill="#6cbae5"/><path d="m194.714844 247.183594c0 9.753906-7.902344 17.65625-17.65625 17.65625-9.75 0-17.65625-7.902344-17.65625-17.65625 0-9.75 7.90625-17.65625 17.65625-17.65625 9.753906 0 17.65625 7.90625 17.65625 17.65625zm0 0" fill="#ea6b65"/><path d="m256.511719 185.386719c0 9.753906-7.902344 17.65625-17.65625 17.65625-9.75 0-17.65625-7.902344-17.65625-17.65625 0-9.75 7.90625-17.652344 17.65625-17.652344 9.753906 0 17.65625 7.902344 17.65625 17.652344zm0 0" fill="#89b140"/><path d="m265.066406 391.371094c-2.339844 0-4.585937-.929688-6.242187-2.585938-18.933594-18.96875-18.933594-49.691406 0-68.664062 3.507812-3.386719 9.097656-3.289063 12.484375.21875 3.304687 3.417968 3.304687 8.84375 0 12.265625-12.042969 12.074219-12.042969 31.621093 0 43.699219 3.449218 3.445312 3.445312 9.035156 0 12.484374-1.65625 1.652344-3.902344 2.582032-6.242188 2.582032zm0 0" fill="#6fbbc6"/><path d="m321.25 391.371094c-4.875 0-8.828125-3.953125-8.828125-8.828125 0-2.339844.929687-4.585938 2.585937-6.238281 12.042969-12.078126 12.042969-31.621094 0-43.699219-3.386718-3.507813-3.292968-9.09375.214844-12.484375 3.421875-3.304688 8.847656-3.304688 12.265625 0 18.929688 18.976562 18.929688 49.691406 0 68.664062-1.652343 1.65625-3.898437 2.585938-6.238281 2.585938zm0 0" fill="#6fbbc6"/><path d="m296.238281 441.402344c-46.242187 0-83.867187-37.625-83.867187-83.867188 0-46.242187 37.625-83.867187 83.867187-83.867187 46.242188 0 83.867188 37.625 83.867188 83.867187 0 46.242188-37.625 83.867188-83.867188 83.867188zm0-150.078125c-36.511719 0-66.210937 29.699219-66.210937 66.210937 0 36.511719 29.699218 66.210938 66.210937 66.210938s66.210938-29.699219 66.210938-66.210938c0-36.511718-29.699219-66.210937-66.210938-66.210937zm0 0"/><path d="m265.066406 391.371094c-2.261718 0-4.519531-.859375-6.242187-2.585938-18.925781-18.929687-18.925781-49.734375 0-68.664062 3.445312-3.449219 9.035156-3.449219 12.480469 0 3.449218 3.445312 3.449218 9.035156 0 12.480468-12.042969 12.046876-12.042969 31.65625 0 43.703126 3.449218 3.445312 3.449218 9.035156 0 12.480468-1.722657 1.726563-3.980469 2.585938-6.238282 2.585938zm0 0"/><path d="m321.25 391.371094c-2.261719 0-4.519531-.859375-6.242188-2.585938-3.449218-3.445312-3.449218-9.035156 0-12.480468 12.042969-12.054688 12.042969-31.648438 0-43.703126-3.449218-3.445312-3.449218-9.035156 0-12.480468 3.449219-3.449219 9.035157-3.449219 12.484376 0 18.929687 18.929687 18.929687 49.734375 0 68.664062-1.726563 1.726563-3.984376 2.585938-6.242188 2.585938zm0 0"/><path d="m424.246094 512c-6.785156 0-13.5625-2.578125-18.726563-7.726562l-76.140625-76.148438c-3.449218-3.449219-3.449218-9.035156 0-12.484375 3.449219-3.445313 9.035156-3.445313 12.484375 0l76.140625 76.144531c3.429688 3.429688 9.050782 3.4375 12.484375-.011718 3.429688-3.429688 3.429688-9.035157-.011719-12.472657l-74.476562-74.488281c-3.449219-3.449219-3.449219-9.035156 0-12.480469 3.449219-3.449219 9.035156-3.449219 12.484375 0l74.484375 74.484375c10.3125 10.328125 10.3125 27.121094.011719 37.449219-5.175781 5.15625-11.960938 7.734375-18.734375 7.734375zm0 0"/><path d="m344.792969 476.714844h-335.464844c-4.875 0-8.828125-3.949219-8.828125-8.828125v-423.746094c0-4.875 3.953125-8.828125 8.828125-8.828125h97.109375c4.875 0 8.828125 3.953125 8.828125 8.828125s-3.953125 8.828125-8.828125 8.828125h-88.28125v406.089844h317.808594v-26.484375c0-4.878907 3.949218-8.828125 8.828125-8.828125 4.878906 0 8.828125 3.949218 8.828125 8.828125v35.3125c0 4.878906-3.949219 8.828125-8.828125 8.828125zm0 0"/><path d="m344.792969 307.335938c-4.878907 0-8.828125-3.949219-8.828125-8.828126v-245.539062h-87.175782c-4.878906 0-8.828124-3.953125-8.828124-8.828125s3.949218-8.828125 8.828124-8.828125h96.003907c4.878906 0 8.828125 3.953125 8.828125 8.828125v254.367187c0 4.878907-3.949219 8.828126-8.828125 8.828126zm0 0"/><path d="m247.683594 88.28125h-141.246094c-4.875 0-8.828125-3.953125-8.828125-8.828125v-70.625c0-4.875 3.953125-8.828125 8.828125-8.828125h141.246094c4.878906 0 8.828125 3.953125 8.828125 8.828125v70.625c0 4.875-3.949219 8.828125-8.828125 8.828125zm-132.417969-17.65625h123.589844v-52.96875h-123.589844zm0 0"/><path d="m177.058594 273.667969c-14.601563 0-26.480469-11.878907-26.480469-26.484375 0-14.601563 11.878906-26.484375 26.480469-26.484375 14.605468 0 26.484375 11.882812 26.484375 26.484375 0 14.605468-11.878907 26.484375-26.484375 26.484375zm0-35.3125c-4.863282 0-8.824219 3.960937-8.824219 8.828125 0 4.867187 3.960937 8.828125 8.824219 8.828125 4.867187 0 8.828125-3.960938 8.828125-8.828125 0-4.867188-3.960938-8.828125-8.828125-8.828125zm0 0"/><path d="m115.265625 211.871094c-14.605469 0-26.484375-11.878906-26.484375-26.480469 0-14.605469 11.878906-26.484375 26.484375-26.484375 14.601563 0 26.484375 11.878906 26.484375 26.484375 0 14.601563-11.882812 26.480469-26.484375 26.480469zm0-35.308594c-4.867187 0-8.828125 3.960938-8.828125 8.824219 0 4.867187 3.960938 8.828125 8.828125 8.828125s8.828125-3.960938 8.828125-8.828125c0-4.863281-3.964844-8.824219-8.828125-8.824219zm0 0"/><path d="m238.855469 211.871094c-14.601563 0-26.484375-11.878906-26.484375-26.480469 0-14.605469 11.882812-26.484375 26.484375-26.484375 14.605469 0 26.484375 11.878906 26.484375 26.484375 0 14.601563-11.878906 26.480469-26.484375 26.480469zm0-35.308594c-4.871094 0-8.828125 3.960938-8.828125 8.824219 0 4.867187 3.957031 8.828125 8.828125 8.828125 4.871093 0 8.828125-3.960938 8.828125-8.828125 0-4.863281-3.957032-8.824219-8.828125-8.824219zm0 0"/><path d="m300.652344 252.929688c-2.035156 0-4.078125-.695313-5.742188-2.125l-50.640625-43.40625c-3.707031-3.171876-4.136719-8.746094-.957031-12.449219 3.183594-3.695313 8.75-4.121094 12.441406-.957031l50.640625 43.40625c3.707031 3.175781 4.136719 8.746093.957031 12.449218-1.742187 2.035156-4.214843 3.082032-6.699218 3.082032zm0 0"/><path d="m191.125 240.875c-2.488281 0-4.960938-1.046875-6.707031-3.082031-3.171875-3.703125-2.746094-9.277344.957031-12.449219l37.171875-31.855469c3.707031-3.171875 9.265625-2.738281 12.449219.957031 3.171875 3.703126 2.738281 9.277344-.957032 12.449219l-37.171874 31.855469c-1.664063 1.425781-3.707032 2.125-5.742188 2.125zm0 0"/><path d="m165.3125 242.855469c-2.03125 0-4.070312-.695313-5.738281-2.125l-39.214844-33.605469c-3.703125-3.171875-4.128906-8.742188-.957031-12.445312 3.175781-3.695313 8.746094-4.121094 12.449218-.957032l39.210938 33.601563c3.703125 3.175781 4.132812 8.746093.957031 12.449219-1.742187 2.035156-4.21875 3.082031-6.707031 3.082031zm0 0"/><path d="m53.472656 252.929688c-2.488281 0-4.960937-1.046876-6.707031-3.082032-3.171875-3.703125-2.746094-9.273437.957031-12.449218l51.230469-43.910157c3.695313-3.179687 9.269531-2.746093 12.449219.957031 3.171875 3.703126 2.746094 9.277344-.957032 12.449219l-51.230468 43.910157c-1.664063 1.429687-3.707032 2.125-5.742188 2.125zm0 0"/><path d="m132.921875 326.636719h-70.625c-4.875 0-8.828125-3.949219-8.828125-8.828125s3.953125-8.828125 8.828125-8.828125h70.625c4.875 0 8.828125 3.949219 8.828125 8.828125s-3.953125 8.828125-8.828125 8.828125zm0 0"/><path d="m132.921875 361.949219h-70.625c-4.875 0-8.828125-3.949219-8.828125-8.828125s3.953125-8.828125 8.828125-8.828125h70.625c4.875 0 8.828125 3.949219 8.828125 8.828125s-3.953125 8.828125-8.828125 8.828125zm0 0"/><path d="m132.921875 397.261719h-70.625c-4.875 0-8.828125-3.949219-8.828125-8.828125s3.953125-8.828125 8.828125-8.828125h70.625c4.875 0 8.828125 3.949219 8.828125 8.828125s-3.953125 8.828125-8.828125 8.828125zm0 0"/></svg>