<?xml version="1.0" encoding="iso-8859-1"?>
<!-- Generator: Adobe Illustrator 19.0.0, SVG Export Plug-In . SVG Version: 6.00 Build 0)  -->
<svg version="1.1" id="Capa_1" xmlns="http://www.w3.org/2000/svg" xmlns:xlink="http://www.w3.org/1999/xlink" x="0px" y="0px"
	 viewBox="0 0 512 512" style="enable-background:new 0 0 512 512;" xml:space="preserve">
<path style="fill:#FFDA2D;" d="M30.015,0v511.974h406.971c41.353,0,74.996-33.643,74.996-74.996V0H30.015z"/>
<path style="fill:#FDBF00;" d="M255,0v511.974h181.987c41.353,0,74.996-33.643,74.996-74.996V0H255z"/>
<polygon style="fill:#EFE2DD;" points="0.017,59.997 0.017,511.198 451.986,512 451.986,59.997 "/>
<polygon style="fill:#E1D3CE;" points="225.541,59.997 225.541,511.598 451.986,512 451.986,59.997 "/>
<rect x="65.778" y="121.99" style="fill:#00317E;" width="318.21" height="29.998"/>
<g>
	<rect x="245" y="362.98" style="fill:#00AB94;" width="138.99" height="29.998"/>
	<rect x="245" y="422.98" style="fill:#00AB94;" width="138.99" height="29.998"/>
	<rect x="65.778" y="362.98" style="fill:#00AB94;" width="138.99" height="29.998"/>
	<rect x="65.778" y="422.98" style="fill:#00AB94;" width="138.99" height="29.998"/>
</g>
<polygon style="fill:#EC5569;" points="289.998,186.93 289.998,216.928 310.843,216.928 259,268.77 184.888,194.657 72.17,307.375 
	93.382,328.587 184.888,237.082 259,311.194 332.055,238.14 332.055,259.984 362.054,259.984 362.054,186.93 "/>
<polygon style="fill:#0040A0;" points="383.993,332.98 67.778,332.98 67.778,181.988 97.776,181.988 97.776,302.982 
	383.993,302.982 "/>
<rect x="225.54" y="121.99" style="fill:#00215A;" width="158.45" height="29.998"/>
<g>
	<rect x="245" y="362.98" style="fill:#009985;" width="138.99" height="29.998"/>
	<rect x="245" y="422.98" style="fill:#009985;" width="138.99" height="29.998"/>
</g>
<polygon style="fill:#E63950;" points="289.998,186.93 289.998,216.928 310.843,216.928 259,268.77 225.541,235.31 225.541,277.735 
	259,311.194 332.055,238.14 332.055,259.984 362.054,259.984 362.054,186.93 "/>
<rect x="225.54" y="302.99" style="fill:#00317E;" width="158.45" height="29.998"/>
<g>
</g>
<g>
</g>
<g>
</g>
<g>
</g>
<g>
</g>
<g>
</g>
<g>
</g>
<g>
</g>
<g>
</g>
<g>
</g>
<g>
</g>
<g>
</g>
<g>
</g>
<g>
</g>
<g>
</g>
</svg>
