<?xml version="1.0" encoding="iso-8859-1"?>
<!-- Generator: Adobe Illustrator 18.0.0, SVG Export Plug-In . SVG Version: 6.00 Build 0)  -->
<!DOCTYPE svg PUBLIC "-//W3C//DTD SVG 1.1//EN" "http://www.w3.org/Graphics/SVG/1.1/DTD/svg11.dtd">
<svg version="1.1" id="Capa_1" xmlns="http://www.w3.org/2000/svg" xmlns:xlink="http://www.w3.org/1999/xlink" x="0px" y="0px"
	 viewBox="0 0 60 60" style="enable-background:new 0 0 60 60;" xml:space="preserve">
<g>
	<rect x="1" y="0.5" style="fill:#556080;" width="58" height="6"/>
	<rect x="3" y="6.5" style="fill:#ECF0F1;" width="54" height="42"/>
	<path style="fill:#8697CB;" d="M19,19.5h-9c-0.552,0-1-0.447-1-1s0.448-1,1-1h9c0.552,0,1,0.447,1,1S19.552,19.5,19,19.5z"/>
	<path style="fill:#8697CB;" d="M15,16.5h-5c-0.552,0-1-0.447-1-1s0.448-1,1-1h5c0.552,0,1,0.447,1,1S15.552,16.5,15,16.5z"/>
	<path style="fill:#8697CB;" d="M19,22.5h-9c-0.552,0-1-0.447-1-1s0.448-1,1-1h9c0.552,0,1,0.447,1,1S19.552,22.5,19,22.5z"/>
	<path style="fill:#659C35;" d="M12,41.5c-0.256,0-0.512-0.098-0.707-0.293c-0.391-0.391-0.391-1.023,0-1.414l12.6-12.6
		c0.391-0.391,1.023-0.391,1.414,0s0.391,1.023,0,1.414l-12.6,12.6C12.512,41.402,12.256,41.5,12,41.5z"/>
	<path style="fill:#659C35;" d="M33.6,37.9c-0.256,0-0.512-0.098-0.707-0.293l-9-9c-0.391-0.391-0.391-1.023,0-1.414
		s1.023-0.391,1.414,0l9,9c0.391,0.391,0.391,1.023,0,1.414C34.112,37.803,33.856,37.9,33.6,37.9z"/>
	<path style="fill:#659C35;" d="M33.6,37.9c-0.256,0-0.512-0.098-0.707-0.293c-0.391-0.391-0.391-1.023,0-1.414l14.4-14.4
		c0.391-0.391,1.023-0.391,1.414,0s0.391,1.023,0,1.414l-14.4,14.4C34.112,37.803,33.856,37.9,33.6,37.9z"/>
	<path style="fill:#659C35;" d="M48,30.5c-0.553,0-1-0.447-1-1v-7c0-0.553,0.447-1,1-1s1,0.447,1,1v7C49,30.053,48.553,30.5,48,30.5
		z"/>
	<path style="fill:#659C35;" d="M48,23.5h-7c-0.552,0-1-0.447-1-1s0.448-1,1-1h7c0.553,0,1,0.447,1,1S48.553,23.5,48,23.5z"/>
	<path style="fill:#556080;" d="M59,49.5H1c-0.552,0-1-0.447-1-1s0.448-1,1-1h58c0.553,0,1,0.447,1,1S59.553,49.5,59,49.5z"/>
	<path style="fill:#556080;" d="M30,52.5c-0.552,0-1-0.447-1-1v-3c0-0.553,0.448-1,1-1s1,0.447,1,1v3C31,52.053,30.552,52.5,30,52.5
		z"/>
	<path style="fill:#556080;" d="M30,59.5c-2.206,0-4-1.794-4-4s1.794-4,4-4s4,1.794,4,4S32.206,59.5,30,59.5z M30,53.5
		c-1.103,0-2,0.897-2,2s0.897,2,2,2s2-0.897,2-2S31.103,53.5,30,53.5z"/>
</g>
<g>
</g>
<g>
</g>
<g>
</g>
<g>
</g>
<g>
</g>
<g>
</g>
<g>
</g>
<g>
</g>
<g>
</g>
<g>
</g>
<g>
</g>
<g>
</g>
<g>
</g>
<g>
</g>
<g>
</g>
</svg>
