<?xml version="1.0" encoding="iso-8859-1"?>
<!-- Generator: Adobe Illustrator 19.0.0, SVG Export Plug-In . SVG Version: 6.00 Build 0)  -->
<svg version="1.1" id="Layer_1" xmlns="http://www.w3.org/2000/svg" xmlns:xlink="http://www.w3.org/1999/xlink" x="0px" y="0px"
	 viewBox="0 0 512 512" style="enable-background:new 0 0 512 512;" xml:space="preserve">
<g id="Others">
</g>
<g id="Design">
</g>
<g id="SEO_x2F__Web">
</g>
<g id="Finance__x2F__Money">
</g>
<g id="E-Commerce__x2F__Shopping">
</g>
<g id="Strategy">
	<g id="strategy">
		
			<radialGradient id="SVGID_1_" cx="256" cy="258" r="256" gradientTransform="matrix(1 0 0 -1 0 514)" gradientUnits="userSpaceOnUse">
			<stop  offset="0.0051" style="stop-color:#1ECA6B"/>
			<stop  offset="0.9949" style="stop-color:#19A658"/>
		</radialGradient>
		<circle style="fill:url(#SVGID_1_);" cx="256" cy="256" r="256"/>
		<g>
			<path style="fill:#E87E04;" d="M297.804,462.146c0.658,2.67,3.446,4.854,6.196,4.854h46c2.75,0,4.462-2.185,3.804-4.854
				l-47.608-193.291C305.538,266.185,302.75,264,300,264h-46c-2.75,0-4.462,2.185-3.804,4.854L297.804,462.146z"/>
		</g>
		<g>
			<path style="fill:#E87E04;" d="M214.196,462.146C213.538,464.815,210.75,467,208,467h-46c-2.75,0-4.462-2.185-3.804-4.854
				l47.608-193.291c0.658-2.67,3.446-4.854,6.196-4.854h46c2.75,0,4.462,2.185,3.804,4.854L214.196,462.146z"/>
		</g>
		<g>
			<polygon style="fill:#D55400;" points="249,264 207,264 181.384,368 237.384,368 256,292.42 			"/>
		</g>
		<g>
			<polygon style="fill:#D55400;" points="305,264 263,264 256,292.42 274.616,368 330.616,368 			"/>
		</g>
		<g>
			<path style="fill:#D55400;" d="M190.003,447.001c-0.213,0-0.43-0.023-0.647-0.071c-1.618-0.355-2.642-1.955-2.286-3.573l10-45.5
				c0.356-1.619,1.952-2.646,3.574-2.286c1.618,0.355,2.642,1.955,2.286,3.573l-10,45.5
				C192.622,446.045,191.381,447.001,190.003,447.001z"/>
		</g>
		<g>
			<path style="fill:#D55400;" d="M204.002,457.001c-0.246,0-0.496-0.03-0.745-0.095c-1.605-0.41-2.574-2.044-2.164-3.649l34-133
				c0.411-1.604,2.042-2.576,3.65-2.163c1.605,0.41,2.574,2.044,2.164,3.649l-34,133C206.56,456.099,205.34,457.001,204.002,457.001
				z"/>
		</g>
		<g>
			<path style="fill:#D55400;" d="M178.002,431.668c-0.223,0-0.45-0.025-0.677-0.078c-1.614-0.372-2.621-1.983-2.249-3.598
				l14-60.667c0.373-1.613,1.982-2.622,3.598-2.248c1.614,0.372,2.621,1.983,2.249,3.598l-14,60.667
				C180.603,430.729,179.368,431.668,178.002,431.668z"/>
		</g>
		<g>
			<path style="fill:#D55400;" d="M321.997,447.001c-1.378,0-2.619-0.956-2.927-2.357l-10-45.5
				c-0.355-1.618,0.668-3.218,2.286-3.573c1.616-0.36,3.218,0.667,3.574,2.286l10,45.5c0.355,1.618-0.668,3.218-2.286,3.573
				C322.427,446.978,322.21,447.001,321.997,447.001z"/>
		</g>
		<g>
			<path style="fill:#D55400;" d="M307.998,457.001c-1.338,0-2.558-0.902-2.905-2.258l-34-133c-0.41-1.605,0.559-3.239,2.164-3.649
				c1.607-0.416,3.239,0.559,3.65,2.163l34,133c0.41,1.605-0.559,3.239-2.164,3.649
				C308.494,456.971,308.244,457.001,307.998,457.001z"/>
		</g>
		<g>
			<path style="fill:#D55400;" d="M333.998,431.668c-1.366,0-2.601-0.938-2.921-2.326l-14-60.667
				c-0.373-1.614,0.634-3.226,2.249-3.598c1.618-0.374,3.226,0.634,3.598,2.248l14,60.667c0.373,1.614-0.634,3.226-2.249,3.598
				C334.448,431.643,334.221,431.668,333.998,431.668z"/>
		</g>
		<rect x="80" y="96" style="fill:#33495F;" width="352" height="261"/>
		<g>
			<path style="fill:#2B3E51;" d="M439,101c0,2.75-2.25,5-5,5H77c-2.75,0-5-2.25-5-5l0,0c0-2.75,2.25-5,5-5h357
				C436.75,96,439,98.25,439,101L439,101z"/>
		</g>
		<g>
			<path style="fill:#2B3E51;" d="M439,352c0,2.75-2.25,5-5,5H77c-2.75,0-5-2.25-5-5l0,0c0-2.75,2.25-5,5-5h357
				C436.75,347,439,349.25,439,352L439,352z"/>
		</g>
		<g>
			<circle style="fill:#ECF0F1;" cx="128" cy="169.667" r="12"/>
		</g>
		<g>
			<circle style="fill:#ECF0F1;" cx="149" cy="302.667" r="12"/>
		</g>
		<g>
			<circle style="fill:#ECF0F1;" cx="161" cy="226.667" r="12"/>
		</g>
		<g>
			<path style="fill:#ECF0F1;" d="M125.334,292.335c-0.534,0-1.066-0.213-1.46-0.633c-26.034-27.793-28.336-54.091-25.684-71.257
				c2.878-18.624,11.842-30.498,12.222-30.994c0.673-0.878,1.928-1.041,2.804-0.372c0.876,0.672,1.043,1.926,0.373,2.803
				c-0.104,0.136-8.793,11.706-11.474,29.357c-3.588,23.629,4.714,46.416,24.677,67.729c0.755,0.806,0.714,2.071-0.092,2.827
				C126.315,292.156,125.824,292.335,125.334,292.335z"/>
		</g>
		<g>
			<path style="fill:#ECF0F1;" d="M128,295.668c-0.132,0-0.264-0.013-0.396-0.04l-19-3.836c-1.083-0.218-1.783-1.273-1.564-2.355
				c0.218-1.082,1.269-1.787,2.356-1.564L126,291.224V274c0-1.104,0.896-2,2-2c1.104,0,2,0.896,2,2v19.668
				c0,0.6-0.269,1.168-0.733,1.548C128.906,295.511,128.458,295.668,128,295.668z"/>
		</g>
		<g>
			<path style="fill:#ECF0F1;" d="M258,199.002c-0.512,0-1.024-0.195-1.414-0.586l-20-20c-0.781-0.781-0.781-2.047,0-2.828
				c0.78-0.781,2.048-0.781,2.828,0l20,20c0.781,0.781,0.781,2.047,0,2.828C259.024,198.807,258.512,199.002,258,199.002z"/>
		</g>
		<g>
			<path style="fill:#ECF0F1;" d="M238,199.002c-0.512,0-1.024-0.195-1.414-0.586c-0.781-0.781-0.781-2.047,0-2.828l20-20
				c0.78-0.781,2.048-0.781,2.828,0c0.781,0.781,0.781,2.047,0,2.828l-20,20C239.024,198.807,238.512,199.002,238,199.002z"/>
		</g>
		<g>
			<g>
				<path style="fill:#ECF0F1;" d="M318,268.002c-0.512,0-1.024-0.195-1.414-0.586l-20-20c-0.781-0.781-0.781-2.047,0-2.828
					c0.78-0.781,2.048-0.781,2.828,0l20,20c0.781,0.781,0.781,2.047,0,2.828C319.024,267.807,318.512,268.002,318,268.002z"/>
			</g>
			<g>
				<path style="fill:#ECF0F1;" d="M298,268.002c-0.512,0-1.024-0.195-1.414-0.586c-0.781-0.781-0.781-2.047,0-2.828l20-20
					c0.78-0.781,2.048-0.781,2.828,0c0.781,0.781,0.781,2.047,0,2.828l-20,20C299.024,267.807,298.512,268.002,298,268.002z"/>
			</g>
		</g>
		<g>
			<path style="fill:#ECF0F1;" d="M377,213.002c-0.512,0-1.024-0.195-1.414-0.586l-20-20c-0.781-0.781-0.781-2.047,0-2.828
				c0.78-0.781,2.048-0.781,2.828,0l20,20c0.781,0.781,0.781,2.047,0,2.828C378.024,212.807,377.512,213.002,377,213.002z"/>
		</g>
		<g>
			<path style="fill:#ECF0F1;" d="M357,213.002c-0.512,0-1.024-0.195-1.414-0.586c-0.781-0.781-0.781-2.047,0-2.828l20-20
				c0.78-0.781,2.048-0.781,2.828,0c0.781,0.781,0.781,2.047,0,2.828l-20,20C358.024,212.807,357.512,213.002,357,213.002z"/>
		</g>
		<g>
			<circle style="fill:#ECF0F1;" cx="365" cy="305.667" r="12"/>
		</g>
		<g>
			<path style="fill:#ECF0F1;" d="M335.541,255.001c-0.883,0-1.69-0.59-1.93-1.482c-0.286-1.066,0.345-2.162,1.411-2.449l0,0
				c0.812-0.221,19.921-5.621,23.004-24.886c0.175-1.09,1.198-1.839,2.291-1.658c1.091,0.174,1.833,1.2,1.659,2.291
				c-3.499,21.861-25.001,27.87-25.915,28.115C335.887,254.979,335.712,255.001,335.541,255.001z"/>
		</g>
		<g>
			<path style="fill:#ECF0F1;" d="M365,242.502c-0.821,0-1.591-0.511-1.883-1.328l-4.361-12.212l-13.181,3.954
				c-1.055,0.314-2.172-0.282-2.49-1.342c-0.317-1.058,0.283-2.173,1.341-2.49l15-4.5c1.02-0.302,2.1,0.241,2.458,1.243l5,14.001
				c0.372,1.04-0.17,2.185-1.21,2.557C365.45,242.464,365.223,242.502,365,242.502z"/>
		</g>
		<g>
			<path style="fill:#ECF0F1;" d="M387.332,292.667c-0.369,0-0.741-0.102-1.075-0.314c-0.931-0.595-1.204-1.831-0.609-2.762
				c0.102-0.16,10.274-16.269,16.195-39.998c5.438-21.794,8.299-54.694-8.948-87.666c-0.512-0.979-0.134-2.187,0.845-2.699
				c0.979-0.51,2.188-0.133,2.699,0.846c17.855,34.134,14.886,68.121,9.251,90.621c-6.093,24.328-16.243,40.379-16.672,41.05
				C388.637,292.341,387.992,292.667,387.332,292.667z"/>
		</g>
		<g>
			<path style="fill:#ECF0F1;" d="M387.334,179.003c-0.196,0-0.396-0.029-0.593-0.091c-1.055-0.327-1.645-1.448-1.317-2.503
				l6-19.335c0.173-0.557,0.579-1.01,1.113-1.241c0.534-0.234,1.143-0.22,1.667,0.033l20,9.667c0.995,0.48,1.411,1.677,0.931,2.671
				c-0.481,0.994-1.678,1.411-2.671,0.931l-17.908-8.656l-5.312,17.116C388.978,178.452,388.187,179.003,387.334,179.003z"/>
		</g>
		<g>
			<circle style="fill:#ECF0F1;" cx="302" cy="148.667" r="12"/>
		</g>
		<g>
			<circle style="fill:#ECF0F1;" cx="221" cy="277.667" r="12"/>
		</g>
		<g>
			<path style="fill:#ECF0F1;" d="M200,266c-0.537,0-1.071-0.215-1.465-0.639l-23.542-25.333c-0.752-0.809-0.706-2.074,0.104-2.826
				s2.075-0.705,2.826,0.104l23.542,25.333c0.752,0.809,0.706,2.074-0.104,2.826C200.977,265.823,200.488,266,200,266z"/>
		</g>
		<g>
			<path style="fill:#ECF0F1;" d="M204,268.002c-0.075,0-0.151-0.004-0.227-0.013l-19-2.169c-1.097-0.126-1.885-1.117-1.76-2.214
				c0.125-1.098,1.114-1.889,2.214-1.761l16.095,1.838l-4.256-16.173c-0.281-1.068,0.357-2.162,1.425-2.443
				c1.067-0.282,2.162,0.357,2.443,1.426l5,19c0.168,0.639,0.01,1.318-0.422,1.817C205.13,267.753,204.577,268.002,204,268.002z"/>
		</g>
	</g>
</g>
<g>
</g>
<g>
</g>
<g>
</g>
<g>
</g>
<g>
</g>
<g>
</g>
<g>
</g>
<g>
</g>
<g>
</g>
<g>
</g>
<g>
</g>
<g>
</g>
<g>
</g>
<g>
</g>
<g>
</g>
</svg>
