<?xml version="1.0" encoding="iso-8859-1"?>
<!-- Generator: Adobe Illustrator 19.0.0, SVG Export Plug-In . SVG Version: 6.00 Build 0)  -->
<svg version="1.1" id="Capa_1" xmlns="http://www.w3.org/2000/svg" xmlns:xlink="http://www.w3.org/1999/xlink" x="0px" y="0px"
	 viewBox="0 0 512 512" style="enable-background:new 0 0 512 512;" xml:space="preserve">
<path style="fill:#FFC477;" d="M484.313,50.107v420.311c0,22.948-17.765,41.561-39.689,41.561L96.045,512H67.386
	c-21.924,0-39.699-18.603-39.699-41.551V50.107C27.687,22.431,49.114,0,75.559,0h360.891C462.886,0,484.313,22.431,484.313,50.107z"
	/>
<path style="fill:#FFD399;" d="M484.313,50.107v420.311c0,22.948-17.765,41.561-39.689,41.561L96.045,512H95.89
	c-21.852-0.093-39.544-18.654-39.544-41.551V50.107C56.346,22.431,77.774,0,104.219,0h332.232
	C462.886,0,484.313,22.431,484.313,50.107z"/>
<path style="fill:#7D8287;" d="M484.313,50.107v13.45H27.687v-13.45C27.687,22.431,49.114,0,75.559,0h360.891
	C462.886,0,484.313,22.431,484.313,50.107z"/>
<path style="fill:#4B5055;" d="M75.559,0C49.114,0,27.687,22.431,27.687,50.107v13.45h28.659v-13.45
	C56.346,22.431,77.774,0,104.219,0H75.559z"/>
<g>
	<path style="fill:#EBEBF0;" d="M411.454,24.759H59.678c-4.285,0-7.76,3.474-7.76,7.76s3.474,7.76,7.76,7.76h351.776
		c4.285,0,7.76-3.474,7.76-7.76S415.74,24.759,411.454,24.759z"/>
	<circle style="fill:#EBEBF0;" cx="443.631" cy="32.519" r="11.143"/>
</g>
<g>
	<path style="fill:#F44545;" d="M133.293,129.739l6.613,13.401c0.623,1.262,1.827,2.138,3.221,2.34l14.789,2.149
		c3.508,0.51,4.909,4.821,2.37,7.296l-10.701,10.431c-1.008,0.983-1.468,2.398-1.23,3.787l2.527,14.729
		c0.599,3.494-3.069,6.159-6.207,4.509l-13.228-6.954c-1.246-0.655-2.735-0.655-3.981,0l-13.228,6.954
		c-3.138,1.65-6.806-1.015-6.207-4.509l2.527-14.729c0.238-1.387-0.222-2.804-1.23-3.787l-10.701-10.431
		c-2.539-2.475-1.138-6.786,2.37-7.296l14.789-2.149c1.394-0.203,2.598-1.077,3.221-2.34l6.613-13.401
		C127.191,126.56,131.725,126.56,133.293,129.739z"/>
	<path style="fill:#F44545;" d="M217.655,129.739l6.613,13.401c0.623,1.262,1.827,2.138,3.221,2.34l14.789,2.149
		c3.508,0.51,4.909,4.821,2.37,7.296l-10.701,10.431c-1.008,0.983-1.468,2.398-1.23,3.787l2.527,14.729
		c0.599,3.494-3.069,6.159-6.207,4.509l-13.228-6.954c-1.246-0.655-2.735-0.655-3.981,0l-13.228,6.954
		c-3.138,1.65-6.806-1.015-6.207-4.509l2.527-14.729c0.238-1.387-0.222-2.804-1.23-3.787l-10.701-10.431
		c-2.539-2.475-1.138-6.786,2.37-7.296l14.789-2.149c1.394-0.203,2.598-1.077,3.221-2.34l6.613-13.401
		C211.552,126.56,216.086,126.56,217.655,129.739z"/>
	<path style="fill:#F44545;" d="M302.016,129.739l6.613,13.401c0.623,1.262,1.827,2.138,3.221,2.34l14.789,2.149
		c3.508,0.51,4.909,4.821,2.37,7.296l-10.701,10.431c-1.008,0.983-1.468,2.398-1.23,3.787l2.527,14.729
		c0.599,3.494-3.069,6.159-6.207,4.509l-13.228-6.954c-1.246-0.655-2.735-0.655-3.981,0l-13.228,6.954
		c-3.138,1.65-6.806-1.015-6.207-4.509l2.527-14.729c0.238-1.387-0.222-2.804-1.23-3.787l-10.701-10.431
		c-2.539-2.475-1.138-6.786,2.37-7.296l14.789-2.149c1.394-0.203,2.598-1.077,3.221-2.34l6.613-13.401
		C295.914,126.56,300.448,126.56,302.016,129.739z"/>
	<path style="fill:#F44545;" d="M386.378,129.739l6.613,13.401c0.623,1.262,1.827,2.138,3.221,2.34l14.789,2.149
		c3.508,0.51,4.909,4.821,2.37,7.296l-10.701,10.431c-1.008,0.983-1.468,2.398-1.23,3.787l2.527,14.729
		c0.599,3.494-3.069,6.159-6.207,4.509l-13.228-6.954c-1.246-0.655-2.735-0.655-3.981,0l-13.228,6.954
		c-3.138,1.65-6.806-1.015-6.207-4.509l2.527-14.729c0.238-1.387-0.222-2.804-1.23-3.787l-10.701-10.431
		c-2.539-2.475-1.138-6.786,2.37-7.296l14.789-2.149c1.394-0.203,2.598-1.077,3.221-2.34l6.613-13.401
		C380.275,126.56,384.809,126.56,386.378,129.739z"/>
</g>
<g>
	<path style="fill:#7D8287;" d="M79.292,263.76h353.414c4.285,0,7.76-3.473,7.76-7.76c0-4.286-3.474-7.76-7.76-7.76H79.292
		c-4.285,0-7.76,3.473-7.76,7.76C71.533,260.287,75.007,263.76,79.292,263.76z"/>
	<path style="fill:#7D8287;" d="M79.292,303.076h59.577c4.285,0,7.76-3.473,7.76-7.76s-3.474-7.76-7.76-7.76H79.292
		c-4.285,0-7.76,3.473-7.76,7.76S75.007,303.076,79.292,303.076z"/>
	<path style="fill:#7D8287;" d="M432.707,287.556H169.909c-4.285,0-7.76,3.473-7.76,7.76s3.474,7.76,7.76,7.76h262.798
		c4.285,0,7.76-3.473,7.76-7.76S436.993,287.556,432.707,287.556z"/>
	<path style="fill:#7D8287;" d="M79.292,342.392H286.22c4.285,0,7.76-3.473,7.76-7.76s-3.474-7.76-7.76-7.76H79.292
		c-4.285,0-7.76,3.473-7.76,7.76S75.007,342.392,79.292,342.392z"/>
	<path style="fill:#7D8287;" d="M432.707,326.873H317.259c-4.285,0-7.76,3.473-7.76,7.76s3.474,7.76,7.76,7.76h115.448
		c4.285,0,7.76-3.473,7.76-7.76S436.993,326.873,432.707,326.873z"/>
	<path style="fill:#7D8287;" d="M432.707,366.189H79.292c-4.285,0-7.76,3.473-7.76,7.76c0,4.286,3.474,7.76,7.76,7.76h353.414
		c4.285,0,7.76-3.473,7.76-7.76C440.466,369.662,436.993,366.189,432.707,366.189z"/>
	<path style="fill:#7D8287;" d="M432.707,405.505H79.292c-4.285,0-7.76,3.473-7.76,7.76s3.474,7.76,7.76,7.76h353.414
		c4.285,0,7.76-3.473,7.76-7.76S436.993,405.505,432.707,405.505z"/>
	<path style="fill:#7D8287;" d="M432.707,444.821h-285.56c-4.285,0-7.76,3.473-7.76,7.76s3.474,7.76,7.76,7.76h285.56
		c4.285,0,7.76-3.473,7.76-7.76S436.993,444.821,432.707,444.821z"/>
	<path style="fill:#7D8287;" d="M116.108,444.821H79.292c-4.285,0-7.76,3.473-7.76,7.76s3.474,7.76,7.76,7.76h36.815
		c4.285,0,7.76-3.473,7.76-7.76S120.394,444.821,116.108,444.821z"/>
</g>
<g>
</g>
<g>
</g>
<g>
</g>
<g>
</g>
<g>
</g>
<g>
</g>
<g>
</g>
<g>
</g>
<g>
</g>
<g>
</g>
<g>
</g>
<g>
</g>
<g>
</g>
<g>
</g>
<g>
</g>
</svg>
